<?xml version="1.0" standalone="no"?>
<!DOCTYPE svg PUBLIC "-//W3C//DTD SVG 20010904//EN"
 "http://www.w3.org/TR/2001/REC-SVG-20010904/DTD/svg10.dtd">
<svg version="1.0" xmlns="http://www.w3.org/2000/svg"
 width="231.000000pt" height="231.000000pt" viewBox="0 0 231.000000 231.000000"
 preserveAspectRatio="xMidYMid meet">
<metadata>
Created by potrace 1.14, written by Peter Selinger 2001-2017
</metadata>
<g transform="translate(0.000000,231.000000) scale(0.100000,-0.100000)"
fill="#000000" stroke="none">
<path d="M920 2237 c-69 -12 -131 -26 -138 -31 -7 -4 -16 -6 -18 -3 -3 3 -46
-15 -95 -39 -49 -24 -94 -44 -99 -44 -4 0 -10 -4 -12 -8 -1 -5 -25 -23 -52
-42 -27 -18 -82 -64 -121 -102 -40 -37 -77 -68 -83 -68 -14 0 -101 -121 -140
-195 -37 -70 -72 -161 -103 -265 -17 -60 -23 -109 -26 -252 -6 -192 4 -264 53
-414 14 -43 26 -105 28 -138 7 -118 19 -211 32 -242 27 -64 114 -107 239 -120
68 -7 95 -20 171 -82 5 -5 35 -18 65 -30 29 -11 82 -32 117 -47 152 -64 386
-90 549 -61 81 14 205 52 323 98 92 36 184 103 297 216 127 129 165 181 229
318 91 194 125 433 90 629 -36 197 -73 295 -173 453 -44 70 -257 279 -319 315
-168 94 -310 144 -477 166 -111 15 -194 12 -337 -12z m330 -36 c30 -5 0 -7
-87 -6 -73 0 -133 3 -133 8 0 9 160 8 220 -2z m197 -37 c-3 -3 -12 -4 -19 -1
-8 3 -5 6 6 6 11 1 17 -2 13 -5z m-758 -57 c-2 -2 -35 -21 -73 -42 -38 -20
-96 -61 -130 -89 -87 -73 -105 -85 -71 -47 17 18 55 51 85 74 30 23 57 44 60
47 11 12 125 68 129 64 2 -2 2 -5 0 -7z m415 -146 c-4 -91 -25 -181 -46 -199
-10 -8 -12 19 -10 135 2 84 -1 158 -7 175 -17 49 -1 55 34 13 32 -37 32 -39
29 -124z m245 128 c100 -23 230 -82 316 -144 35 -25 66 -45 70 -45 19 0 81
-60 120 -116 36 -52 41 -64 26 -64 -9 0 -37 -6 -62 -14 -24 -7 -65 -18 -92
-25 -26 -6 -66 -23 -90 -38 -23 -15 -60 -37 -83 -48 -41 -20 -144 -95 -144
-105 0 -3 -7 -14 -15 -25 -15 -18 -17 -17 -73 38 -55 55 -61 58 -118 63 -35 3
-83 17 -120 34 -94 45 -97 70 -16 149 46 45 61 68 76 116 23 73 31 222 13 243
-10 13 -4 14 48 8 33 -4 98 -16 144 -27z m-375 -11 c8 -13 18 -35 21 -50 8
-32 2 -36 -62 -42 -24 -2 -60 -13 -81 -24 l-39 -20 -12 55 c-7 30 -10 57 -7
61 6 6 131 40 153 41 7 1 19 -9 27 -21z m-282 -116 c-2 -20 -9 -56 -17 -80
-12 -34 -15 -109 -15 -362 0 -176 -1 -320 -2 -321 -2 0 -69 -4 -151 -8 -114
-7 -152 -12 -166 -25 -9 -9 -22 -16 -28 -16 -5 0 -20 -12 -34 -26 -31 -33 -71
-54 -105 -54 l-27 0 6 113 c10 189 86 420 163 492 5 6 23 28 39 50 58 80 95
117 200 200 37 30 130 84 134 79 3 -3 4 -21 3 -42z m288 -47 c0 -8 5 -15 10
-15 13 0 13 -46 -1 -73 -6 -12 -21 -32 -32 -45 -26 -28 -47 -86 -47 -130 0
-39 -24 -89 -54 -113 -11 -10 -22 -16 -23 -15 -2 2 -5 87 -9 190 -5 168 -3
190 12 207 11 12 25 17 38 13 12 -3 33 -1 46 4 29 11 60 -1 60 -23z m-619 -42
c-11 -16 -35 -42 -54 -60 -18 -18 -57 -73 -87 -123 -53 -90 -75 -119 -44 -57
35 68 107 172 152 218 53 55 62 61 33 22z m622 -175 l-18 -33 -3 29 c-2 16 5
48 15 70 l18 41 3 -37 c2 -22 -4 -50 -15 -70z m954 -87 c30 -3 37 -121 13
-220 l-11 -48 -112 -7 c-334 -20 -347 -20 -347 -3 0 21 37 94 65 128 12 15 28
48 35 74 9 34 20 50 39 58 34 14 245 27 318 18z m-930 -54 c-2 -6 -13 -14 -25
-18 -20 -8 -22 -5 -22 33 l0 41 25 -23 c14 -13 24 -28 22 -33z m-856 6 c-12
-20 -14 -14 -5 12 4 9 9 14 11 11 3 -2 0 -13 -6 -23z m759 -26 c0 -16 -9 -26
-30 -34 -33 -12 -32 -7 4 34 24 28 26 28 26 0z m630 -1 c0 -17 -30 -82 -59
-128 -40 -65 -64 -72 -69 -20 -3 25 3 39 25 61 15 16 40 43 54 60 22 26 49 41
49 27z m-424 -42 c39 -17 74 -54 52 -54 -9 0 -21 7 -28 15 -6 8 -24 14 -38 13
-30 -1 -78 8 -114 21 -21 8 -19 9 22 18 48 10 57 9 106 -13z m324 -13 c0 -5
-7 -11 -14 -14 -10 -4 -13 -1 -9 9 6 15 23 19 23 5z m609 -62 c1 -21 -5 -42
-14 -49 -12 -10 -15 -10 -16 1 -2 20 1 49 7 89 6 30 8 32 14 15 5 -11 9 -36 9
-56z m-1159 38 c0 -11 96 -41 140 -42 8 -1 31 -4 50 -8 19 -4 64 -9 100 -11
74 -4 106 -16 115 -47 11 -33 -13 -46 -90 -53 -38 -4 -81 -9 -95 -12 -14 -2
-50 -8 -80 -13 -30 -4 -85 -18 -122 -32 -37 -13 -70 -21 -73 -17 -4 4 -8 55
-8 114 -1 93 1 108 18 120 24 18 45 18 45 1z m1227 -49 c-3 -8 -6 -5 -6 6 -1
11 2 17 5 13 3 -3 4 -12 1 -19z m10 -40 c-3 -8 -6 -5 -6 6 -1 11 2 17 5 13 3
-3 4 -12 1 -19z m-2030 -10 c-3 -8 -6 -5 -6 6 -1 11 2 17 5 13 3 -3 4 -12 1
-19z m1983 -21 c0 -28 -42 -46 -122 -52 -29 -2 -43 -2 -31 1 12 3 27 12 33 20
7 8 24 14 39 14 14 0 37 9 51 20 31 24 30 25 30 -3z m57 -9 c-3 -8 -6 -5 -6 6
-1 11 2 17 5 13 3 -3 4 -12 1 -19z m10 -70 c-3 -7 -5 -2 -5 12 0 14 2 19 5 13
2 -7 2 -19 0 -25z m-417 -1 c36 -3 83 -9 105 -12 22 -3 50 -7 62 -9 12 -2 46
3 75 11 87 24 110 26 119 11 10 -15 12 -185 3 -238 l-6 -36 -86 0 c-48 1 -131
-1 -184 -4 -79 -4 -100 -1 -115 12 -24 21 -45 26 -138 33 -43 3 -85 10 -91 16
-15 12 -7 88 12 110 18 20 18 29 -1 29 -11 0 -15 11 -15 39 0 37 2 40 33 44
35 5 124 2 227 -6z m-1653 -29 c-3 -8 -6 -5 -6 6 -1 11 2 17 5 13 3 -3 4 -12
1 -19z m650 -10 c-3 -7 -5 -2 -5 12 0 14 2 19 5 13 2 -7 2 -19 0 -25z m1431
-114 c-4 -91 -10 -139 -18 -147 -10 -10 -11 -8 -5 8 4 11 10 77 13 148 2 70 7
127 10 127 3 0 3 -61 0 -136z m-924 96 c-13 -13 -106 -30 -153 -29 l-36 1 35
9 c19 5 62 13 95 18 33 5 62 9 65 10 2 0 0 -3 -6 -9z m92 -27 c-10 -10 -19 5
-10 18 6 11 8 11 12 0 2 -7 1 -15 -2 -18z m-900 -52 c-6 -9 -92 -31 -122 -31
-25 0 -6 19 29 29 42 12 100 13 93 2z m219 -1 c-3 -5 -13 -10 -21 -10 -8 0
-12 5 -9 10 3 6 13 10 21 10 8 0 12 -4 9 -10z m235 0 c-36 -11 -50 -11 -50 0
0 6 17 10 38 9 33 -1 34 -2 12 -9z m357 3 c-11 -10 -139 -15 -133 -5 3 5 36
10 73 11 37 1 64 -1 60 -6z m93 -52 c0 -11 -4 -23 -10 -26 -6 -4 -10 5 -10 19
0 14 5 26 10 26 6 0 10 -9 10 -19z m-328 -13 c-4 -4 -44 -11 -89 -15 -75 -8
-83 -7 -83 8 0 15 11 17 89 16 50 -1 87 -5 83 -9z m239 0 c1 -7 3 -29 4 -48 0
-19 4 -44 8 -56 7 -20 -43 -129 -109 -239 -13 -22 -28 -49 -33 -60 -5 -11 -27
-38 -49 -59 -23 -21 -46 -52 -53 -68 -15 -36 -81 -76 -138 -83 -23 -3 -64 -16
-89 -29 -33 -16 -66 -23 -111 -24 -35 -1 -69 -6 -75 -12 -20 -20 -59 -10 -100
26 -81 71 -90 80 -134 139 -24 33 -48 62 -52 65 -5 3 -25 36 -45 74 l-37 70
20 40 c11 23 28 59 38 81 19 43 19 43 79 80 105 65 188 95 260 95 22 0 25 -4
25 -37 0 -30 -8 -43 -46 -80 -55 -51 -52 -71 3 -23 43 38 51 29 29 -32 -8 -24
-17 -60 -21 -80 -5 -31 -3 -37 9 -32 14 5 17 -11 4 -31 -18 -30 -32 -203 -18
-225 3 -6 20 5 36 23 24 25 43 73 88 212 91 286 79 262 134 264 26 0 61 3 77
6 17 3 62 9 100 12 39 3 79 10 90 16 16 9 58 20 98 26 4 0 8 -5 8 -11z m-816
-18 c-3 -5 -11 -10 -16 -10 -6 0 -38 -24 -71 -52 -43 -38 -69 -72 -93 -121
l-34 -69 -6 35 c-14 75 46 203 100 212 105 17 128 18 120 5z m35 0 c0 -5 -5
-10 -11 -10 -5 0 -7 5 -4 10 3 6 8 10 11 10 2 0 4 -4 4 -10z m-286 -25 c-4 -8
-8 -15 -10 -15 -2 0 -4 7 -4 15 0 8 4 15 10 15 5 0 7 -7 4 -15z m58 3 c-7 -7
-12 -19 -12 -27 -1 -9 -12 -29 -25 -46 -30 -36 -32 -17 -5 43 12 26 26 42 37
42 13 0 14 -3 5 -12z m1128 -2 c0 -2 -3 -11 -6 -20 -9 -23 -24 -20 -24 4 0 11
7 20 15 20 8 0 15 -2 15 -4z m50 -26 c0 -5 -5 -10 -11 -10 -5 0 -7 5 -4 10 3
6 8 10 11 10 2 0 4 -4 4 -10z m242 -69 c10 -1 26 -10 37 -22 18 -20 20 -20 77
-4 33 9 71 19 86 23 49 12 171 2 195 -16 19 -15 20 -21 10 -52 -10 -30 -17
-36 -52 -41 -22 -4 -55 -11 -72 -17 -18 -6 -93 -11 -168 -11 l-136 0 -43 42
c-38 37 -66 75 -66 91 0 5 64 12 95 9 11 -1 28 -2 37 -2z m477 -34 c-5 -20
-12 -37 -15 -37 -6 0 5 59 13 73 11 18 12 -1 2 -36z m-821 11 c-8 -13 -32 -52
-53 -88 -37 -62 -55 -83 -63 -75 -2 2 8 21 22 42 14 20 26 43 26 51 0 23 50
92 66 92 14 0 15 -3 2 -22z m137 -4 c14 -15 25 -34 25 -42 0 -8 23 -36 50 -63
l51 -49 160 0 c114 0 169 4 193 14 19 8 50 14 70 14 l35 0 -16 -31 c-9 -18
-19 -34 -23 -37 -4 -3 -20 -28 -36 -55 -16 -28 -51 -83 -79 -122 -91 -129
-331 -283 -520 -334 -120 -32 -316 -32 -448 0 l-98 24 31 18 c17 11 34 19 38
19 13 0 152 138 152 150 0 13 48 87 133 202 37 50 67 97 67 104 0 6 18 34 40
60 22 27 40 55 40 62 0 7 10 31 23 52 19 34 27 40 55 40 23 0 40 -8 57 -26z
m-738 -81 c-3 -10 -5 -4 -5 12 0 17 2 24 5 18 2 -7 2 -21 0 -30z m1389 -39
c-18 -53 -82 -178 -98 -195 -8 -8 -27 -32 -43 -54 -48 -66 -192 -215 -207
-215 -5 0 -29 -15 -56 -34 -54 -39 -208 -116 -231 -116 -9 0 26 21 78 45 52
25 116 61 142 80 27 19 53 35 57 35 19 0 165 154 213 225 19 28 38 52 42 54
10 4 91 168 100 202 3 13 9 21 12 18 3 -3 -1 -24 -9 -45z m-1403 -9 c-3 -9 -8
-14 -10 -11 -3 3 -2 9 2 15 9 16 15 13 8 -4z m466 -137 c-8 -14 -14 -18 -17
-10 -4 13 17 46 25 38 3 -2 -1 -15 -8 -28z m-79 -79 c-16 -58 -180 -199 -232
-199 -13 0 -41 -6 -64 -13 -23 -7 -77 -11 -122 -9 -92 4 -114 18 -24 17 31 -1
73 5 92 12 19 8 61 23 94 34 112 38 143 58 202 130 31 38 58 68 60 66 2 -2 -1
-19 -6 -38z m-63 -117 c-10 -10 -17 -25 -17 -34 0 -23 -112 -125 -146 -132
-36 -8 -83 -1 -98 14 -7 7 -4 10 9 11 42 2 51 5 84 24 58 35 149 105 155 120
3 8 11 15 17 15 8 0 6 -7 -4 -18z m-144 -279 c-7 -2 -19 -2 -25 0 -7 3 -2 5
12 5 14 0 19 -2 13 -5z m545 1 c-16 -16 -203 -44 -288 -43 -160 2 -163 14 -4
15 98 1 168 7 204 17 58 16 97 21 88 11z m-501 -10 c-3 -3 -12 -4 -19 -1 -8 3
-5 6 6 6 11 1 17 -2 13 -5z m46 -11 c-7 -2 -19 -2 -25 0 -7 3 -2 5 12 5 14 0
19 -2 13 -5z"/>
</g>
</svg>
